<svg id="图层_1" data-name="图层 1" xmlns="http://www.w3.org/2000/svg" viewBox="0 0 270.19 555.55"><defs><style>.cls-1{fill:#37393f;}.cls-2{fill:#303135;}.cls-3{font-size:9.29px;font-family:MicrosoftYaHei, Microsoft YaHei;}.cls-3,.cls-4{fill:#fff;}.cls-5{fill:#a3a3a4;}.cls-6{fill:none;stroke:#323333;stroke-miterlimit:10;stroke-width:0.61px;}.cls-7{fill:#f2f2f2;}</style></defs><title>手机</title><rect class="cls-1" x="12.64" y="13.25" width="244.94" height="55.09"/><rect class="cls-2" x="12.64" y="13.25" width="244.94" height="19.41"/><text class="cls-3" transform="translate(25.68 26.34)">中国联通</text><path class="cls-4" d="M761,132.07l1.47,1.47a.79.79,0,0,0,1.12,0l1.48-1.47a3.3,3.3,0,0,0-4.06,0Z" transform="translate(-549.78 -106.23)"/><path class="cls-4" d="M767.7,129.4l.74-.74a8.15,8.15,0,0,0-10.86,0l.72.72A7.08,7.08,0,0,1,767.7,129.4Z" transform="translate(-549.78 -106.23)"/><path class="cls-4" d="M759.26,130.36l.74.75a4.67,4.67,0,0,1,6,0l.74-.74A5.72,5.72,0,0,0,759.26,130.36Z" transform="translate(-549.78 -106.23)"/><path class="cls-4" d="M792.89,127a.61.61,0,0,0-.61-.61H776.59V134h15.69a.61.61,0,0,0,.61-.61Z" transform="translate(-549.78 -106.23)"/><path class="cls-5" d="M792.28,134.16H774.5a.76.76,0,0,1-.76-.76V127a.76.76,0,0,1,.76-.76h17.78a.76.76,0,0,1,.76.76v6.4a.76.76,0,0,1-.76.76Zm-17.78-7.62a.46.46,0,0,0-.32.13.46.46,0,0,0-.13.32v6.4a.46.46,0,0,0,.46.46h17.78a.46.46,0,0,0,.46-.46V127a.46.46,0,0,0-.46-.46Z" transform="translate(-549.78 -106.23)"/><rect class="cls-4" x="243.26" y="22.36" width="0.87" height="3.2"/><path class="cls-5" d="M794.06,131.95h-1.18v-3.51h1.18Zm-.87-.31h.56v-2.89h-.56Z" transform="translate(-549.78 -106.23)"/><rect class="cls-4" x="579.7" y="149.94" width="1.14" height="13.49" transform="translate(-490.61 349.98) rotate(-45)"/><rect class="cls-4" x="573.53" y="156.12" width="13.49" height="1.14" transform="translate(-490.62 349.98) rotate(-45)"/><line class="cls-6" x1="47.54" y1="42.39" x2="47.54" y2="58.33"/><circle class="cls-4" cx="240.22" cy="45.15" r="1.21"/><circle class="cls-4" cx="240.22" cy="50.38" r="1.21"/><circle class="cls-4" cx="240.22" cy="55.61" r="1.21"/><path class="cls-7" d="M782.85,106.23H586.9a37.12,37.12,0,0,0-37.12,37.12V624.67a37.12,37.12,0,0,0,37.12,37.12H782.85A37.12,37.12,0,0,0,820,624.67V143.35A37.12,37.12,0,0,0,782.85,106.23Zm24.51,517a26.28,26.28,0,0,1-26.28,26.28H588.69a26.28,26.28,0,0,1-26.28-26.28V145.78a26.28,26.28,0,0,1,26.28-26.28h24.08a3.87,3.87,0,0,1,3.87,3.87v3.23A12.44,12.44,0,0,0,629.08,139H740.59A12.44,12.44,0,0,0,753,126.6v-3.23a3.87,3.87,0,0,1,3.87-3.87h24.18a26.28,26.28,0,0,1,26.28,26.28Z" transform="translate(-549.78 -106.23)"/></svg>